HIERARCHY
ROOT Hips
{
	OFFSET -0.001795 -0.223333 0.028219
	CHANNELS 6 Xposition Yposition Zposition Zrotation Yrotation Xrotation 
	JOINT LeftUpLeg
	{
		OFFSET 0.069520 -0.091406 -0.006815
		CHANNELS 3 Zrotation Yrotation Xrotation
		JOINT LeftLeg
		{
			OFFSET 0.034277 -0.375199 -0.004496
			CHANNELS 3 Zrotation Yrotation Xrotation
			JOINT LeftFoot
			{
				OFFSET -0.013596 -0.397961 -0.043693
				CHANNELS 3 Zrotation Yrotation Xrotation
				JOINT LeftToe
				{
					OFFSET 0.026358 -0.055791 0.119288
					CHANNELS 3 Zrotation Yrotation Xrotation
					End Site
					{
						OFFSET 0.000000 0.000000 0.000000
					}
				}
			}
		}
	}
	JOINT RightUpLeg
	{
		OFFSET -0.067670 -0.090522 -0.004320
		CHANNELS 3 Zrotation Yrotation Xrotation
		JOINT RightLeg
		{
			OFFSET -0.038290 -0.382569 -0.008850
			CHANNELS 3 Zrotation Yrotation Xrotation
			JOINT RightFoot
			{
				OFFSET 0.015774 -0.398415 -0.042312
				CHANNELS 3 Zrotation Yrotation Xrotation
				JOINT RightToe
				{
					OFFSET -0.025372 -0.048144 0.123348
					CHANNELS 3 Zrotation Yrotation Xrotation
					End Site
					{
						OFFSET 0.000000 0.000000 0.000000
					}
				}
			}
		}
	}
	JOINT Spine
	{
		OFFSET -0.002533 0.108963 -0.026696
		CHANNELS 3 Zrotation Yrotation Xrotation
		JOINT Spine1
		{
			OFFSET 0.005487 0.135180 0.001092
			CHANNELS 3 Zrotation Yrotation Xrotation
			JOINT Spine2
			{
				OFFSET 0.001457 0.052922 0.025425
				CHANNELS 3 Zrotation Yrotation Xrotation
				JOINT Neck
				{
					OFFSET -0.002778 0.213870 -0.042857
					CHANNELS 3 Zrotation Yrotation Xrotation
					JOINT Head
					{
						OFFSET 0.005152 0.064970 0.051349
						CHANNELS 3 Zrotation Yrotation Xrotation
						End Site
						{
							OFFSET 0.000000 0.000000 0.000000
						}
					}
				}
				JOINT LeftShoulder
				{
					OFFSET 0.078845 0.121749 -0.034090
					CHANNELS 3 Zrotation Yrotation Xrotation
					JOINT LeftArm
					{
						OFFSET 0.090977 0.030469 -0.008868
						CHANNELS 3 Zrotation Yrotation Xrotation
						JOINT LeftForeArm
						{
							OFFSET 0.259612 -0.012772 -0.027456
							CHANNELS 3 Zrotation Yrotation Xrotation
							JOINT LeftHand
							{
								OFFSET 0.249234 0.008986 -0.001171
								CHANNELS 3 Zrotation Yrotation Xrotation
								End Site
								{
									OFFSET 0.000000 0.000000 0.000000
								}
							}
						}
					}
				}
				JOINT RightShoulder
				{
					OFFSET -0.081759 0.118833 -0.038615
					CHANNELS 3 Zrotation Yrotation Xrotation
					JOINT RightArm
					{
						OFFSET -0.096012 0.032551 -0.009143
						CHANNELS 3 Zrotation Yrotation Xrotation
						JOINT RightForeArm
						{
							OFFSET -0.253742 -0.013329 -0.021401
							CHANNELS 3 Zrotation Yrotation Xrotation
							JOINT RightHand
							{
								OFFSET -0.255298 0.007772 -0.005559
								CHANNELS 3 Zrotation Yrotation Xrotation
								End Site
								{
									OFFSET 0.000000 0.000000 0.000000
								}
							}
						}
					}
				}
			}
		}
	}
}
MOTION
Frames: 13
Frame Time: 0.050000
0.000000 0.948215 0.000000 -0.494552 -3.913007 2.173627 3.070125 0.012455 0.637169 0.015839 0.064807 -1.991654 3.094006 9.239790 11.967700 0.000000 0.000000 0.000000 -1.812617 0.171329 -1.301960 -2.439454 0.134045 -1.730020 1.716843 -1.740358 10.838232 0.000000 0.000000 0.000000 5.654590 -0.026803 -0.583864 -2.548135 1.190561 -2.284743 -3.185584 5.117578 5.170953 7.622798 -3.720015 -12.663344 0.000000 0.000000 0.000000 -21.357234 -3.939043 -0.913999 -49.595320 -4.905780 -3.703635 -12.480709 -20.840809 2.918716 0.000000 0.000000 0.000000 20.787214 -3.161903 -2.752895 56.104924 5.240529 -3.224742 9.655614 22.311266 2.648242 0.000000 0.000000 0.000000 
-0.000137 0.947143 0.000626 -0.724368 -4.388133 2.717311 3.514361 0.022513 0.912648 -0.402353 0.146298 -3.282430 3.314437 9.545864 11.951474 0.000000 0.000000 0.000000 -1.732545 0.247023 -2.199947 -2.186802 0.141091 -1.205410 1.820387 -1.421285 10.458294 0.000000 0.000000 0.000000 6.321341 0.027441 -1.280589 -2.827646 1.321307 -1.784306 -3.978485 5.634885 4.509707 8.684306 -4.301701 -12.957972 0.000000 0.000000 0.000000 -22.131774 -3.896433 -1.195626 -48.518395 -5.019108 -3.446862 -13.294879 -21.004507 3.062418 0.000000 0.000000 0.000000 20.569034 -3.977594 -3.096692 57.176009 4.586250 -3.503382 10.381172 22.453975 2.822266 0.000000 0.000000 0.000000 
-0.000219 0.946771 0.000961 -0.440089 -4.260569 2.687626 3.029773 0.016506 0.714401 -0.068643 0.104170 -2.911823 3.294235 9.499446 11.814899 0.000000 0.000000 0.000000 -1.782242 0.249964 -2.227813 -2.635153 0.190704 -1.052077 1.681181 -1.559087 10.184590 0.000000 0.000000 0.000000 6.140445 0.034123 -1.343372 -2.494097 1.154942 -2.891106 -4.498149 5.834992 5.251029 8.142572 -4.096314 -12.145786 0.000000 0.000000 0.000000 -21.741352 -4.611088 -0.808377 -48.779488 -4.767220 -3.627989 -13.142493 -20.518602 2.960092 0.000000 0.000000 0.000000 21.427795 -3.345217 -2.704536 56.358429 4.290960 -3.727967 10.138249 22.926180 2.863175 0.000000 0.000000 0.000000 
-0.000344 0.946385 0.001348 -0.431577 -4.227660 2.785315 3.376943 0.022197 0.897688 -0.678570 0.173680 -3.385967 3.236819 9.407269 11.799961 0.000000 0.000000 0.000000 -1.906245 0.279083 -2.548296 -2.413097 0.198039 -0.608869 1.600319 -1.606520 9.950561 0.000000 0.000000 0.000000 6.198710 0.053835 -1.567114 -2.462237 1.149201 -2.180814 -4.504442 5.554929 4.273258 8.455369 -4.445036 -11.357236 0.000000 0.000000 0.000000 -22.342396 -4.087423 -1.154722 -48.588644 -5.136015 -3.372452 -12.993735 -20.151980 2.877856 0.000000 0.000000 0.000000 20.839462 -3.598171 -2.887805 56.270634 3.982618 -3.733220 11.213213 23.039993 3.063323 0.000000 0.000000 0.000000 
-0.000460 0.946402 0.001586 -0.363942 -4.118124 2.543444 3.001000 0.036829 0.999800 -0.111816 0.114771 -3.106872 3.215147 9.369331 11.719860 0.000000 0.000000 0.000000 -1.919748 0.259963 -2.328628 -2.493175 0.214627 -0.473901 1.537672 -1.681931 9.868231 0.000000 0.000000 0.000000 6.140720 0.047629 -1.453930 -2.328440 1.090675 -2.069989 -4.614637 5.624200 4.110326 8.134062 -4.335860 -10.714165 0.000000 0.000000 0.000000 -22.372550 -4.425983 -1.024220 -48.426467 -5.304901 -3.265502 -13.697333 -20.011996 2.971114 0.000000 0.000000 0.000000 20.786181 -3.684000 -2.894456 56.103920 3.619318 -3.883582 11.441775 23.420668 3.173206 0.000000 0.000000 0.000000 
-0.000542 0.946468 0.001741 -0.368551 -3.905245 2.487551 2.955658 0.044160 1.108843 0.027576 0.106748 -3.229794 3.103706 9.209496 11.722650 0.000000 0.000000 0.000000 -1.896457 0.253078 -2.258399 -2.486245 0.218904 -0.410561 1.442992 -1.846313 9.870421 0.000000 0.000000 0.000000 6.157780 0.053291 -1.507697 -2.221418 1.044704 -1.895938 -4.638906 5.351410 4.018433 8.091626 -4.385358 -10.352410 0.000000 0.000000 0.000000 -22.897914 -4.409061 -1.057723 -48.143690 -5.529281 -3.144741 -13.564327 -19.963393 2.946345 0.000000 0.000000 0.000000 20.732268 -3.445901 -2.794340 55.985262 3.516830 -3.910647 11.502999 23.327297 3.160135 0.000000 0.000000 0.000000 
-0.000600 0.946332 0.001694 -0.360336 -3.784847 2.405403 2.869001 0.046523 1.121199 0.195679 0.088365 -3.128258 3.064718 9.141315 11.633383 0.000000 0.000000 0.000000 -1.814022 0.246921 -2.209251 -2.625466 0.239502 -0.306393 1.368462 -1.945733 9.790335 0.000000 0.000000 0.000000 6.175570 0.057694 -1.538983 -2.257744 1.064156 -1.675361 -4.739157 5.211567 3.967528 8.185876 -4.373507 -10.757137 0.000000 0.000000 0.000000 -22.953088 -4.450597 -1.027887 -48.186094 -5.533019 -3.144953 -13.453981 -19.724497 2.893342 0.000000 0.000000 0.000000 20.709936 -3.580284 -2.883674 55.967847 3.261505 -4.017933 11.725168 23.423889 3.215892 0.000000 0.000000 0.000000 
-0.000667 0.946419 0.001495 -0.405410 -3.620783 2.524175 2.791165 0.031314 0.911057 0.458957 0.062298 -3.049715 3.008409 9.061709 11.621329 0.000000 0.000000 0.000000 -1.691042 0.253387 -2.310338 -2.724034 0.248116 -0.332817 1.302840 -2.088654 9.860107 0.000000 0.000000 0.000000 6.142266 0.059795 -1.592883 -2.175269 1.026149 -1.738306 -4.773128 5.177184 4.116555 8.313693 -4.506989 -10.523431 0.000000 0.000000 0.000000 -23.101454 -4.606153 -0.968066 -47.942501 -5.669589 -3.076056 -13.454191 -19.470504 2.855207 0.000000 0.000000 0.000000 20.844500 -3.696428 -2.943006 55.878164 3.286908 -4.020827 11.801959 23.100082 3.184036 0.000000 0.000000 0.000000 
-0.000756 0.946416 0.001271 -0.458086 -3.650742 2.612844 2.828763 0.013851 0.676435 0.499160 0.049583 -2.816668 3.050463 9.117886 11.577119 0.000000 0.000000 0.000000 -1.576843 0.258387 -2.387577 -2.817455 0.252704 -0.397790 1.321785 -2.071904 9.898308 0.000000 0.000000 0.000000 6.205736 0.066534 -1.677995 -2.187228 1.031807 -1.674380 -4.718356 5.124125 4.222206 8.410900 -4.557668 -10.651754 0.000000 0.000000 0.000000 -22.905374 -4.665400 -0.878464 -48.104386 -5.807983 -3.056583 -13.346632 -19.006155 2.772776 0.000000 0.000000 0.000000 20.874554 -3.591884 -2.905257 55.759027 3.255865 -4.036914 11.677714 22.901377 3.124503 0.000000 0.000000 0.000000 
-0.000852 0.946576 0.001154 -0.515767 -3.807654 2.766674 2.807422 0.000474 0.482893 0.628310 0.034511 -2.737457 3.140128 9.260424 11.646541 0.000000 0.000000 0.000000 -1.492675 0.274588 -2.583713 -2.863937 0.255903 -0.400659 1.402709 -1.962945 9.972707 0.000000 0.000000 0.000000 6.244327 0.084548 -1.887143 -2.225194 1.048540 -1.639530 -4.640696 5.305533 4.358419 8.514061 -4.632431 -10.621470 0.000000 0.000000 0.000000 -22.645982 -4.859584 -0.755055 -48.207766 -5.764452 -3.092342 -13.562029 -18.754787 2.768793 0.000000 0.000000 0.000000 20.871037 -3.515363 -2.837258 55.677609 3.226086 -4.062089 11.602290 22.611884 3.068642 0.000000 0.000000 0.000000 
-0.000916 0.946581 0.001201 -0.526967 -3.889296 2.841920 2.886934 -0.003460 0.443829 0.500286 0.047876 -2.784857 3.175616 9.314627 11.677201 0.000000 0.000000 0.000000 -1.451237 0.280544 -2.655764 -2.921258 0.258660 -0.435087 1.440569 -1.904090 9.985932 0.000000 0.000000 0.000000 6.290933 0.085389 -1.906909 -2.227121 1.049656 -1.570590 -4.585022 5.352528 4.374471 8.557485 -4.667252 -10.602528 0.000000 0.000000 0.000000 -22.614973 -4.828984 -0.763024 -48.056580 -5.494215 -3.189571 -13.974767 -18.963743 2.868548 0.000000 0.000000 0.000000 20.980157 -3.450740 -2.813423 55.453497 3.052582 -4.131725 11.761645 22.380137 3.058931 0.000000 0.000000 0.000000 
-0.000941 0.946514 0.001368 -0.565977 -4.017734 2.912466 3.006995 -0.006016 0.426916 0.341422 0.064064 -2.830265 3.234714 9.399210 11.679976 0.000000 0.000000 0.000000 -1.471789 0.274798 -2.582051 -2.826156 0.230393 -0.718031 1.518947 -1.788417 10.043634 0.000000 0.000000 0.000000 6.324258 0.095183 -2.013256 -2.220500 1.046102 -1.552799 -4.438978 5.494335 4.403722 8.500414 -4.632689 -10.565386 0.000000 0.000000 0.000000 -22.363115 -4.694638 -0.821926 -48.231322 -5.263413 -3.297803 -14.469216 -19.206439 2.985077 0.000000 0.000000 0.000000 20.831534 -3.528308 -2.832902 55.455354 2.764340 -4.262035 11.965933 22.363345 3.097157 0.000000 0.000000 0.000000 
-0.000952 0.946435 0.001599 -0.608357 -4.089798 2.952553 3.030483 0.000370 0.523621 0.367833 0.068967 -3.025260 3.267094 9.448373 11.698366 0.000000 0.000000 0.000000 -1.469910 0.271382 -2.540010 -2.758413 0.214580 -0.859451 1.562235 -1.719241 10.062260 0.000000 0.000000 0.000000 6.319666 0.095019 -2.017264 -2.217221 1.043257 -1.647364 -4.224102 5.614032 4.355115 8.488568 -4.653568 -10.398147 0.000000 0.000000 0.000000 -22.272175 -4.491457 -0.938729 -48.123264 -5.012160 -3.381604 -15.159122 -19.686936 3.175459 0.000000 0.000000 0.000000 20.843962 -3.650331 -2.896417 55.236296 2.459006 -4.381695 12.319747 22.235603 3.142867 0.000000 0.000000 0.000000 
